<?xml version="1.0" standalone="yes"?>
<svg xmlns="http://www.w3.org/2000/svg" width="1606" height="903">
<path style="fill:#fefffe; stroke:none;" d="M0 0L0 903L1606 903L1606 0L0 0z"/>
<path style="fill:#408a5f; stroke:none;" d="M802 69C806.589 71.0306 809.932 74.1467 814 77C810.986 72.7251 807.592 68.21 802 69z"/>
<path style="fill:#19456e; stroke:none;" d="M523 318L599 318L600 422C628.92 422.003 659.579 426.741 687 436L687 336L919 336L919 435C929.21 434.187 938.96 430.492 949 428.611C968.402 424.976 988.27 422.407 1008 422L1008 318L1085 318C1080.7 310.494 1071.51 304.227 1065 298.576C1052.25 287.502 1039.39 276.393 1027 264.911C976.469 218.085 924.32 172.404 872 127.579C855.465 113.413 839.489 98.6415 823 84.4236L811 73.9545C809.04 72.2546 806.808 69.8682 804 69.8673C801.243 69.8664 799.011 72.1765 797.089 73.8596C793.039 77.4081 789.074 81.0557 785 84.5764C768.155 99.1317 751.654 114.166 735 128.95C686.815 171.725 638.824 214.83 590 256.87C574.442 270.266 559.391 284.255 543.999 297.845C537.201 303.847 527.536 310.08 523 318z"/>
<path style="fill:#408a5f; stroke:none;" d="M800 70L801 71L800 70M799 71L800 72L799 71M798 72L799 73L798 72M797 73L798 74L797 73M796 74L797 75L796 74M795 75L796 76L795 75M792.667 77.3333C792.222 77.7778 793.278 77.7222 793.333 77.6667C793.778 77.222 792.722 77.2778 792.667 77.3333M815 77L816 78L815 77M791 78L792 79L791 78M816 78L817 79L816 78M790 79L791 80L790 79M817 79L818 80L817 79M789 80L790 81L789 80M818 80L819 81L818 80M788 81L789 82L788 81M819 81L820 82L819 81M787 82L788 83L787 82M820 82L821 83L820 82M786 83L787 84L786 83M821.667 83.3333C821.222 83.7777 822.278 83.7223 822.333 83.6667C822.778 83.222 821.722 83.2778 821.667 83.3333M784.667 84.3333C784.222 84.778 785.278 84.722 785.333 84.6667C785.778 84.222 784.722 84.2778 784.667 84.3333M823 84L824 85L823 84M783 85L784 86L783 85M824 85L825 86L824 85M782 86L783 87L782 86M825 86L826 87L825 86M781 87L782 88L781 87M826 87L827 88L826 87M780 88L781 89L780 88M827 88L828 89L827 88M779 89L780 90L779 89M828 89L829 90L828 89M778 90L779 91L778 90M829.667 90.3333C829.222 90.7778 830.278 90.7222 830.333 90.6667C830.778 90.2221 829.722 90.2776 829.667 90.3333M777 91L778 92L777 91M831 91L832 92L831 91M776 92L777 93L776 92M832 92L833 93L832 92M774.667 93.3333C774.222 93.7778 775.278 93.7222 775.333 93.6667C775.778 93.2221 774.722 93.2776 774.667 93.3333M833 93L834 94L833 93M773 94L774 95L773 94M834 94L835 95L834 94M772 95L773 96L772 95M835 95L836 96L835 95M771 96L772 97L771 96M836 96L837 97L836 96M770 97L771 98L770 97M837 97L838 98L837 97M769 98L770 99L769 98M839 98L840 99L839 98M768 99L769 100L768 99M840 99L841 100L840 99M767 100L768 101L767 100M841 100L842 101L841 100M766 101L767 102L766 101M842 101L843 102L842 101M764.667 102.333C764.222 102.778 765.278 102.722 765.333 102.667C765.778 102.222 764.722 102.278 764.667 102.333M843 102L844 103L843 102M763 103L764 104L763 103M844 103L845 104L844 103M762 104L763 105L762 104M845 104L846 105L845 104M761 105L762 106L761 105M846 105L847 106L846 105M760 106L761 107L760 106M847 106L848 107L847 106M759 107L760 108L759 107M849 107L850 108L849 107M758 108L759 109L758 108M850 108L851 109L850 108M757 109L758 110L757 109M851 109L852 110L851 109M756 110L757 111L756 110M852 110L853 111L852 110M754.667 111.333C754.222 111.778 755.278 111.722 755.333 111.667C755.778 111.222 754.722 111.278 754.667 111.333M853 111L854 112L853 111M753 112L754 113L753 112M854 112L855 113L854 112M752 113L753 114L752 113M855 113L856 114L855 113M751 114L752 115L751 114M856 114L857 115L856 114M750 115L751 116L750 115M857.667 115.333C857.222 115.778 858.278 115.722 858.333 115.667C858.778 115.222 857.722 115.278 857.667 115.333M749 116L750 117L749 116M859 116L860 117L859 116M748 117L749 118L748 117M860 117L861 118L860 117M746.667 118.333C746.222 118.778 747.278 118.722 747.333 118.667C747.778 118.222 746.722 118.278 746.667 118.333M861 118L862 119L861 118M745 119L746 120L745 119M862 119L863 120L862 119M744 120L745 121L744 120M863 120L864 121L863 120M743 121L744 122L743 121M864.667 121.333C864.222 121.778 865.278 121.722 865.333 121.667C865.778 121.222 864.722 121.278 864.667 121.333M742 122L743 123L742 122M866 122L867 123L866 122M741 123L742 124L741 123M867 123L868 124L867 123M740 124L741 125L740 124M868 124L869 125L868 124M738 125L739 126L738 125M869 125L870 126L869 125M737 126L738 127L737 126M870 126L871 127L870 126M736 127L737 128L736 127M871.667 127.333C871.222 127.778 872.278 127.722 872.333 127.667C872.778 127.222 871.722 127.278 871.667 127.333M735 128L736 129L735 128M873 128L874 129L873 128M734 129L735 130L734 129M874 129L875 130L874 129M733 130L734 131L733 130M875 130L876 131L875 130M731.667 131.333C731.222 131.778 732.278 131.722 732.333 131.667C732.778 131.222 731.722 131.278 731.667 131.333M876 131L877 132L876 131M730 132L731 133L730 132M877 132L878 133L877 132M729 133L730 134L729 133M878 133L879 134L878 133M728 134L729 135L728 134M879 134L880 135L879 134M727 135L728 136L727 135M880 135L881 136L880 135M726 136L727 137L726 136M881.667 136.333C881.222 136.778 882.278 136.722 882.333 136.667C882.778 136.222 881.722 136.278 881.667 136.333M725 137L726 138L725 137M883 137L884 138L883 137M724 138L725 139L724 138M884 138L885 139L884 138M722 139L723 140L722 139M885 139L886 140L885 139M721 140L722 141L721 140M886 140L887 141L886 140M720 141L721 142L720 141M887 141L888 142L887 141M719 142L720 143L719 142M888 142C889.223 143.195 889.42 143.316 891 144C889.777 142.805 889.58 142.684 888 142M718 143L719 144L718 143M717 144L718 145L717 144M891 144L892 145L891 144M716 145L717 146L716 145M892 145L893 146L892 145M714.667 146.333C714.222 146.778 715.278 146.722 715.333 146.667C715.778 146.222 714.722 146.277 714.667 146.333M893 146L894 147L893 146M713 147L714 148L713 147M894 147L895 148L894 147M712 148L713 149L712 148M895 148L896 149L895 148M711 149L712 150L711 149M896.667 149.333C896.222 149.778 897.278 149.722 897.333 149.667C897.778 149.222 896.722 149.278 896.667 149.333M710 150L711 151L710 150M898 150L899 151L898 150M709 151L710 152L709 151M899 151L900 152L899 151M707.667 152.333C707.222 152.778 708.278 152.722 708.333 152.667C708.778 152.222 707.722 152.278 707.667 152.333M900 152L901 153L900 152M706 153L707 154L706 153M901 153L902 154L901 153M705 154L706 155L705 154M902 154L903 155L902 154M704 155L705 156L704 155M903 155L904 156L903 155M703 156L704 157L703 156M904 156L905 157L904 156M702 157L703 158L702 157M905.667 157.333C905.222 157.778 906.278 157.722 906.333 157.667C906.778 157.222 905.722 157.278 905.667 157.333M701 158L702 159L701 158M907 158L908 159L907 158M700 159L701 160L700 159M908 159L909 160L908 159M698 160L699 161L698 160M909 160L910 161L909 160M697 161L698 162L697 161M910 161L911 162L910 161M696 162L697 163L696 162M911 162L912 163L911 162M695 163L696 164L695 163M912 163L913 164L912 163M694 164L695 165L694 164M913.667 164.333C913.222 164.778 914.278 164.722 914.333 164.667C914.778 164.222 913.722 164.278 913.667 164.333M693 165L694 166L693 165M915 165L916 166L915 165M692 166L693 167L692 166M916 166L917 167L916 166M690 167L689 169L691 169C691 167.147 691.3 167.65 690 167M917 167L918 168L917 167M918 168L919 169L918 168M688 169L689 170L688 169M919 169L920 170L919 169M687 170L688 171L687 170M920 170L921 171L920 170M686 171L687 172L686 171M921 171L922 172L921 171M685 172L686 173L685 172M923 172L924 173L923 172M684 173L685 174L684 173M924 173L925 174L924 173M682.667 174.333C682.222 174.778 683.278 174.722 683.333 174.667C683.778 174.222 682.722 174.278 682.667 174.333M925 174L926 175L925 174M681 175L682 176L681 175M926 175L927 176L926 175M680 176L681 177L680 176M927 176L928 177L927 176M679 177L680 178L679 177M928 177L929 178L928 177M678 178L679 179L678 178M929 178L930 179L929 178M677 179L678 180L677 179M930 179L931 180L930 179M676 180L677 181L676 180M931 180L932 181L931 180M675 181L676 182L675 181M932.667 181.333C932.222 181.778 933.278 181.722 933.333 181.667C933.778 181.222 932.722 181.278 932.667 181.333M673 182L674 183L673 182M796.667 182.333C796.222 182.778 797.278 182.722 797.333 182.667C797.778 182.222 796.722 182.278 796.667 182.333z"/>
<path style="fill:#fefffe; stroke:none;" d="M798 182.44C792.595 183.308 787.549 185.323 783 188.363C752.305 208.869 770.89 260.402 808 254.561C814.594 253.523 820.636 251.269 825.996 247.239C855.321 225.193 833.763 176.693 798 182.44z"/>
<path style="fill:#408a5f; stroke:none;" d="M809 182C810.248 182.685 810.549 182.749 812 183C810.752 182.315 810.452 182.251 809 182M934 182L935 183L934 182M672 183L673 184L672 183M792 183L793 184L792 183M813.667 183.333C813.222 183.778 814.278 183.722 814.333 183.667C814.778 183.222 813.722 183.278 813.667 183.333M935 183L936 184L935 183M671 184L672 185L671 184M789.667 184.333C789.222 184.778 790.278 184.722 790.333 184.667C790.778 184.222 789.722 184.278 789.667 184.333M816.667 184.333C816.222 184.778 817.278 184.722 817.333 184.667C817.778 184.222 816.722 184.278 816.667 184.333M936 184L937 185L936 184M670 185L671 186L670 185M787 185L788 186L787 185M819 185L820 186L819 185M937 185L938 186L937 185M669 186L670 187L669 186M785 186L786 187L785 186M821 186L822 187L821 186M938 186L939 187L938 186M668 187L669 188L668 187M784 187L785 188L784 187M822 187L823 188L822 187M939 187L940 188L939 187M667 188L668 189L667 188M782 188L783 189L782 188M824 188L825 189L824 188M940 188L941 189L940 188M666 189L667 190L666 189M781 189L782 190L781 189M825 189L826 190L825 189M942 189L943 190L942 189M665 190L666 191L665 190M779 190L780 191L779 190M827 190L828 191L827 190M943 190L944 191L943 190M663 191L664 192L663 191M778 191L779 192L778 191M828 191L829 192L828 191M944 191L945 192L944 191M662 192L663 193L662 192M777 192L778 193L777 192M829 192L830 193L829 192M945 192L946 193L945 192M661 193L662 194L661 193M776 193L777 194L776 193M830 193L831 194L830 193M946 193L947 194L946 193M660 194L661 195L660 194M775 194L776 195L775 194M947 194L948 195L947 194M659 195L660 196L659 195M948.667 195.333C948.222 195.778 949.278 195.722 949.333 195.667C949.778 195.222 948.722 195.278 948.667 195.333M658 196L659 197L658 196M774 196L775 197L774 196M832 196L833 197L832 196M950 196L951 197L950 196M657 197L658 198L657 197M773 197L774 198L773 197M833 197L834 198L833 197M951 197L952 198L951 197M656 198L657 199L656 198M952 198L953 199L952 198M654.667 199.333C654.222 199.778 655.278 199.722 655.333 199.667C655.778 199.222 654.722 199.278 654.667 199.333M772 199L773 200L772 199M834 199L835 200L834 199M953 199L954 200L953 199M653 200L654 201L653 200M771 200L772 201L771 200M835 200L836 201L835 200M954 200L955 201L954 200M652 201L653 202L652 201M955 201L956 202L955 201M651 202L652 203L651 202M770 202L771 203L770 202M836 202L837 203L836 202M956.667 202.333C956.222 202.778 957.278 202.722 957.333 202.667C957.778 202.222 956.722 202.278 956.667 202.333M650 203L651 204L650 203M958 203L959 204L958 203M649 204L650 205L649 204M769.333 204.667C769.278 204.722 769.222 205.778 769.667 205.333C769.722 205.278 769.778 204.222 769.333 204.667M837.333 204.667C837.278 204.722 837.222 205.778 837.667 205.333C837.722 205.278 837.778 204.222 837.333 204.667M959 204L960 205L959 204M648 205L649 206L648 205M960 205L961 206L960 205M647 206L648 207L647 206M961 206L962 207L961 206M645 207L646 208L645 207M768 207L769 208L768 207M838 207L839 208L838 207M962 207L963 208L962 207M644 208L645 209L644 208M963 208L964 209L963 208M643 209L644 210L643 209M964 209L965 210L964 209M642 210L643 211L642 210M767.333 210.667C767.278 210.722 767.222 211.778 767.667 211.333C767.722 211.278 767.778 210.222 767.333 210.667M839 210L839 214C839.71 212.241 839.71 211.759 839 210M965.667 210.333C965.222 210.778 966.278 210.722 966.333 210.667C966.778 210.222 965.722 210.278 965.667 210.333M641 211L642 212L641 211M967 211L968 212L967 211M640 212L641 213L640 212M968 212L969 213L968 212M639 213L640 214L639 213M969 213L970 214L969 213M637 214L638 215L637 214M970 214L971 215L970 214M636 215L637 216L636 215M971 215L972 216L971 215M635 216L636 217L635 216M972 216L973 217L972 216M634 217L635 218L634 217M973 217L974 218L973 217M633 218L634 219L633 218M974 218L975 219L974 218M632 219L633 220L632 219M976 219L977 220L976 219M631 220L632 221L631 220M977 220L978 221L977 220M630 221L631 222L630 221M978 221L979 222L978 221M629 222L630 223L629 222M979 222L980 223L979 222M627.667 223.333C627.222 223.778 628.278 223.722 628.333 223.667C628.778 223.222 627.722 223.278 627.667 223.333M980 223L981 224L980 223M626 224L627 225L626 224M767 224L767 227C767.696 225.446 767.696 225.554 767 224M839.333 224.667C839.278 224.722 839.222 225.778 839.667 225.333C839.722 225.278 839.778 224.222 839.333 224.667M981 224L982 225L981 224M625 225L626 226L625 225M982 225L983 226L982 225M624 226L625 227L624 226M983 226C984.223 227.195 984.42 227.316 986 228C984.777 226.805 984.58 226.684 983 226M623 227L624 228L623 227M622 228L623 229L622 228M768.333 228.667C768.278 228.722 768.222 229.778 768.667 229.333C768.722 229.278 768.778 228.222 768.333 228.667M838.333 228.667C838.278 228.722 838.222 229.778 838.667 229.333C838.722 229.278 838.778 228.222 838.333 228.667M986 228L987 229L986 228M621 229L622 230L621 229M987 229L988 230L987 229M619.667 230.333C619.222 230.778 620.278 230.722 620.333 230.667C620.778 230.222 619.722 230.278 619.667 230.333M988 230L989 231L988 230M618 231L619 232L618 231M769.333 231.667C769.278 231.722 769.222 232.778 769.667 232.333C769.722 232.278 769.778 231.222 769.333 231.667M837.333 231.667C837.278 231.722 837.222 232.778 837.667 232.333C837.722 232.278 837.778 231.222 837.333 231.667M989 231L990 232L989 231M617 232L618 233L617 232M990 232L991 233L990 232M616 233L617 234L616 233M991.667 233.333C991.222 233.778 992.278 233.722 992.333 233.667C992.778 233.222 991.722 233.278 991.667 233.333M615 234L616 235L615 234M770 234L771 235L770 234M836 234L837 235L836 234M993 234L994 235L993 234M614 235L615 236L614 235M994 235L995 236L994 235M613 236L614 237L613 236M771 236L772 237L771 236M835 236L836 237L835 236M995 236L996 237L995 236M612 237L613 238L612 237M772 237L773 238L772 237M834 237L835 238L834 237M996 237L997 238L996 237M610 238L611 239L610 238M997 238L998 239L997 238M609 239L610 240L609 239M773 239L774 240L773 239M833 239L834 240L833 239M998 239L999 240L998 239M608 240L609 241L608 240M774 240L775 241L774 240M832 240L833 241L832 240M999 240L1000 241L999 240M607 241L608 242L607 241M1001 241L1002 242L1001 241M606 242L607 243L606 242M775 242L776 243L775 242M831 242L832 243L831 242M1002 242L1003 243L1002 242M605 243L606 244L605 243M776 243L777 244L776 243M830 243L831 244L830 243M1003 243L1004 244L1003 243M604 244L605 245L604 244M777 244L778 245L777 244M829 244L830 245L829 244M1004 244L1005 245L1004 244M602.667 245.333C602.222 245.778 603.278 245.722 603.333 245.667C603.778 245.222 602.722 245.278 602.667 245.333M778 245L779 246L778 245M828 245L829 246L828 245M1005 245L1006 246L1005 245M601 246L602 247L601 246M779 246L780 247L779 246M827 246L828 247L827 246M1006 246L1007 247L1006 246M600 247L601 248L600 247M781 247L782 248L781 247M825 247L826 248L825 247M1007 247L1008 248L1007 247M599 248L600 249L599 248M782 248L783 249L782 248M824 248L825 249L824 248M1008 248L1009 249L1008 248M598 249L599 250L598 249M784 249L785 250L784 249M822 249L823 250L822 249M1009.67 249.333C1009.22 249.778 1010.28 249.722 1010.33 249.667C1010.78 249.222 1009.72 249.278 1009.67 249.333M597 250L598 251L597 250M785 250L786 251L785 250M821 250L822 251L821 250M1011 250L1012 251L1011 250M596 251L597 252L596 251M787 251L788 252L787 251M819 251L820 252L819 251M1012 251L1013 252L1012 251M594.667 252.333C594.222 252.778 595.278 252.722 595.333 252.667C595.778 252.222 594.722 252.278 594.667 252.333M789.667 252.333C789.222 252.778 790.278 252.722 790.333 252.667C790.778 252.222 789.722 252.278 789.667 252.333M816.667 252.333C816.222 252.778 817.278 252.722 817.333 252.667C817.778 252.222 816.722 252.278 816.667 252.333M1013 252L1014 253L1013 252M593 253L594 254L593 253M792 253L793 254L792 253M813.667 253.333C813.222 253.778 814.278 253.722 814.333 253.667C814.778 253.222 813.722 253.278 813.667 253.333M1014 253L1015 254L1014 253M592 254L593 255L592 254M795.667 254.333C795.222 254.778 796.278 254.722 796.333 254.667C796.778 254.222 795.722 254.278 795.667 254.333M808 254C809.248 254.685 809.548 254.749 811 255C809.752 254.315 809.452 254.251 808 254M1015 254L1016 255L1015 254M591 255L592 256L591 255M1016 255L1017 256L1016 255M590 256L591 257L590 256M1017 256L1018 257L1017 256M589 257L590 258L589 257M1018 257L1019 258L1018 257M587.667 258.333C587.222 258.778 588.278 258.722 588.333 258.667C588.778 258.222 587.722 258.278 587.667 258.333M1020 258L1021 259L1020 258M586 259L587 260L586 259M1021 259L1022 260L1021 259M585 260L586 261L585 260M1022 260L1023 261L1022 260M584 261L585 262L584 261M1023 261L1024 262L1023 261M583 262L584 263L583 262M1024 262L1025 263L1024 262M582 263L583 264L582 263M1025 263L1026 264L1025 263M581 264L582 265L581 264M1026 264L1027 265L1026 264M580 265L581 266L580 265M1027 265L1028 266L1027 265M577 268C578.58 267.317 578.777 267.195 580 266C578.42 266.684 578.223 266.805 577 268M1028 266L1029 267L1028 266M1029.67 267.333C1029.22 267.777 1030.28 267.722 1030.33 267.667C1030.78 267.222 1029.72 267.278 1029.67 267.333M576 268L577 269L576 268M1031 268L1032 269L1031 268M575 269L576 270L575 269M1032 269L1033 270L1032 269M574 270L575 271L574 270M1033 270L1034 271L1033 270M573 271L574 272L573 271M1034 271L1035 272L1034 271M572 272L573 273L572 272M1035 272L1036 273L1035 272M571 273L572 274L571 273M1036 273L1037 274L1036 273M569.667 274.333C569.222 274.778 570.278 274.722 570.333 274.667C570.778 274.222 569.722 274.278 569.667 274.333M1037 274L1038 275L1037 274M568 275L569 276L568 275M1038.67 275.333C1038.22 275.778 1039.28 275.722 1039.33 275.667C1039.78 275.222 1038.72 275.278 1038.67 275.333M567 276L568 277L567 276M1040 276L1041 277L1040 276M566 277L567 278L566 277M1041 277L1042 278L1041 277M565 278L566 279L565 278M1042 278L1043 279L1042 278M564 279L565 280L564 279M1043 279L1044 280L1043 279M563 280L564 281L563 280M1044 280L1045 281L1044 280M562 281L563 282L562 281M1045 281L1046 282L1045 281M560 282L559 284L561 284C561 282.147 561.3 282.65 560 282M1046 282L1047 283L1046 282M1047.67 283.333C1047.22 283.778 1048.28 283.722 1048.33 283.667C1048.78 283.222 1047.72 283.278 1047.67 283.333M558 284L559 285L558 284M1049 284L1050 285L1049 284M557 285L558 286L557 285M1050 285L1051 286L1050 285M556 286L557 287L556 286M1051 286L1052 287L1051 286M555 287L556 288L555 287M1052 287L1053 288L1052 287M554 288L555 289L554 288M1053 288L1054 289L1053 288M553 289L554 290L553 289M1054.67 289.333C1054.22 289.777 1055.28 289.723 1055.33 289.667C1055.78 289.222 1054.72 289.278 1054.67 289.333M552 290L553 291L552 290M1056 290L1057 291L1056 290M550 291L549 293L551 293C551 291.147 551.3 291.65 550 291M1057 291L1058 292L1057 291M1058 292L1059 293L1058 292M548 293L549 294L548 293M1059 293L1060 294L1059 293M547 294L548 295L547 294M1060 294L1061 295L1060 294M546 295L547 296L546 295M1061 295L1062 296L1061 295M545 296L546 297L545 296M1062 296L1063 297L1062 296M544 297L545 298L544 297M1063 297L1064 298L1063 297M543 298L544 299L543 298M1064.67 298.333C1064.22 298.778 1065.28 298.722 1065.33 298.667C1065.78 298.222 1064.72 298.278 1064.67 298.333M541.667 299.333C541.222 299.778 542.278 299.722 542.333 299.667C542.778 299.222 541.722 299.278 541.667 299.333M1066 299L1067 300L1066 299M540 300L541 301L540 300M1067 300L1068 301L1067 300M539 301L540 302L539 301M1068 301L1069 302L1068 301M538 302L539 303L538 302M1069 302L1070 303L1069 302M537 303L538 304L537 303M1070 303L1071 304L1070 303M536 304L537 305L536 304M1071 304L1072 305L1071 304M535 305L536 306L535 305M1072 305L1073 306L1072 305M534 306L535 307L534 306M1073 306L1074 307L1073 306M1074 307L1075 308L1074 307M531.667 308.333C531.222 308.778 532.278 308.722 532.333 308.667C532.778 308.222 531.722 308.278 531.667 308.333M1075.67 308.333C1075.22 308.777 1076.28 308.722 1076.33 308.667C1076.78 308.222 1075.72 308.278 1075.67 308.333M530 309L531 310L530 309M1077 309L1078 310L1077 309M529 310L530 311L529 310M1078 310L1079 311L1078 310M528 311L529 312L528 311M1079 311L1080 312L1079 311M527 312L528 313L527 312M1080 312L1081 313L1080 312M526 313L527 314L526 313M1081 313L1082 314L1081 313M525 314L526 315L525 314M1082 314L1083 315L1082 314M524 315L525 316L524 315M1083 315L1084 316L1083 315M1085 316C1079.73 319.996 1069.42 318 1063 318L1008 318L1008 422C1011.51 413.643 1009 400.06 1009 391L1009 319L1068 319C1071.2 319 1086.79 320.754 1085 316M521 317C524.606 321.126 535.783 319 541 319L599 319C592.564 316.299 582.951 318 576 318C558.161 318 538.559 320.26 521 317M599 346L599 422C601.189 416.784 600 409.619 600 404L600 366C600 359.846 601.395 351.707 599 346z"/>
<path style="fill:#19456e; stroke:none;" d="M707 354L707 430L792 430L792 354L707 354M815 354L815 430L900 430L900 354L815 354z"/>
<path style="fill:#408a5f; stroke:none;" d="M605 422C607.052 422.874 608.747 422.953 611 423C608.948 422.126 607.253 422.047 605 422M1001.67 422.333C1001.22 422.777 1002.28 422.722 1002.33 422.667C1002.78 422.222 1001.72 422.278 1001.67 422.333M621 423L622 424L621 423M985 423C986.506 423.683 987.315 423.826 989 424C987.494 423.317 986.685 423.174 985 423M631 424C633.052 424.874 634.747 424.953 637 425C634.948 424.126 633.253 424.047 631 424M975 424C976.506 424.683 977.315 424.826 979 425C977.494 424.317 976.685 424.174 975 424M641 425L642 426L641 425M966 425C967.248 425.685 967.548 425.749 969 426C967.752 425.315 967.452 425.251 966 425M960.667 426.333C960.222 426.778 961.278 426.722 961.333 426.667C961.778 426.222 960.722 426.278 960.667 426.333M650 427C651.506 427.683 652.315 427.826 654 428C652.494 427.317 651.685 427.174 650 427M955.667 427.333C955.223 427.777 956.277 427.723 956.333 427.667C956.778 427.222 955.722 427.278 955.667 427.333M656 428C657.506 428.683 658.315 428.826 660 429C658.494 428.317 657.685 428.174 656 428M949 428C950.248 428.685 950.548 428.749 952 429C950.752 428.315 950.452 428.251 949 428M662 429L663 430L662 429M939.667 430.333C939.223 430.777 940.278 430.722 940.333 430.667C940.778 430.222 939.722 430.278 939.667 430.333M671 431L672 432L671 431M935 431L936 432L935 431M675 432L676 433L675 432M679.667 433.333C679.222 433.778 680.278 433.722 680.333 433.667C680.778 433.222 679.722 433.278 679.667 433.333M928.667 433.333C928.223 433.777 929.277 433.722 929.333 433.667C929.778 433.222 928.722 433.278 928.667 433.333M682 434L683 435L682 434M923.667 434.333C923.223 434.777 924.278 434.722 924.333 434.667C924.778 434.222 923.722 434.278 923.667 434.333M685 435L686 436L685 435M919.667 435.333C919.222 435.778 920.278 435.722 920.333 435.667C920.778 435.222 919.722 435.278 919.667 435.333M558 439.424C544.443 441.204 530.624 441.706 517 443.166C502.563 444.712 488.305 447.55 474 449.92C460.011 452.237 442.659 454.148 430.001 460.825C420.367 465.906 415.578 479.037 410.2 488C407.855 491.908 405.501 497.636 400.96 499.397C397.19 500.858 391.977 500 388 500L360 500C351.829 500 344.586 499.478 338.015 505.213C332.232 510.261 328.783 517.647 324.657 524C315.863 537.537 307.177 551.204 298.797 565C276.892 601.06 253.47 636.253 231.05 672C210.13 705.356 188.964 738.549 168.192 772C160.841 783.838 146.775 801.049 163.004 812.347C170.187 817.348 182.648 815 191 815L258 815L514 815L644 815L684 815C690.217 815 697.946 813.766 703.985 815.318C708.646 816.516 711.329 821.598 714.289 825C719.241 830.69 724.964 835.604 731 840.104C749.673 854.026 773.732 861.887 797 861.999C823.666 862.128 849.436 857.695 872 842.645C878.654 838.207 885.32 833.053 890.572 826.996C893.729 823.355 897.176 816.648 902.09 815.318C908.898 813.476 917.962 815 925 815L973 815L1128 815L1344 815L1408 815C1417.93 815 1430.51 817.034 1440 813.751C1448.63 810.766 1453.01 800.542 1450.03 792C1447.18 783.815 1441.03 776.22 1436.34 769C1429.7 758.775 1423.47 748.299 1416.95 738C1381.53 682.055 1345.17 626.589 1310.8 570C1300.97 553.826 1290.69 537.846 1280.34 522C1275.7 514.886 1271.96 505.825 1264 501.84C1259.05 499.36 1253.37 500 1248 500L1219 500C1214.87 500 1209.06 501.028 1205.19 499.397C1201.32 497.767 1199.23 492.384 1197.2 489C1192.01 480.352 1186.39 465.22 1177 460.569C1170.19 457.196 1161.38 456.206 1154 454.576C1138.15 451.076 1122.09 447.814 1106 445.718C1044.22 437.67 980.547 434.091 920 452.202C889.084 461.45 860.346 476.114 835 496.015C826.674 502.552 819.148 509.982 812.271 518C810.152 520.471 806.798 525.944 803.089 525.944C800.517 525.944 798.62 522.725 797.196 520.998C793.098 516.031 788.553 511.546 784 507C768.772 491.796 750.833 480.488 732 470.309C695.562 450.613 652.86 442.711 612 439.91C594.563 438.715 575.413 437.138 558 439.424M721 448L722 449L721 448z"/>
<path style="fill:#19456e; stroke:none;" d="M722 448C726.924 452.08 733.392 454.267 739 457.309C745.555 460.864 751.835 465.154 758 469.344C769.805 477.367 779.756 488.922 792 496L792 448L722 448M815 448L815 498C825.811 489.732 834.666 479.009 846 471.036C853.051 466.077 860.357 461.321 868 457.32C873.686 454.344 879.584 452.569 885 449C878.806 446.401 869.686 448 863 448L815 448z"/>
<path style="fill:#408a5f; stroke:none;" d="M885 448L886 449L885 448M723 449L724 450L723 449M884 449L885 450L884 449M725 450L726 451L725 450M882 450L883 451L882 450M727 451L728 452L727 451M881 451L882 452L881 451M729 452L730 453L729 452M879 452L880 453L879 452M731 453L732 454L731 453M877 453L878 454L877 453M733 454L734 455L733 454M874 454L875 455L874 454M735 455L736 456L735 455M871 455L872 456L871 455M737 456L738 457L737 456M869 456L870 457L869 456M739 457L740 458L739 457M741 458L742 459L741 458M865 458L866 459L865 458M864 459L865 460L864 459M744 460L745 461L744 460M862 460L863 461L862 460z"/>
<path style="fill:#fefffe; stroke:none;" d="M336 657C404.493 641.298 474.407 623.744 545 622.015C597.705 620.723 653.777 632.139 701 655.753C717.764 664.136 733.649 674.353 748 686.439C765.075 700.819 778.564 717.566 791 736C793.802 729.322 792 719.216 792 712L792 658L792 582L792 561C792 557.02 792.497 552.683 790.697 549C787.997 543.476 783.107 538.62 779.13 534C766.728 519.589 752.203 507.738 736 497.811C684.761 466.419 621.046 458.454 562 461.039C549.663 461.58 537.287 463.602 525 464.831C506.776 466.653 489.002 470.316 471 473.576C462.692 475.08 451.627 475.783 444.015 479.434C438.828 481.922 436.215 488.308 433.4 493L413.2 527C387.351 570.17 360.402 613.005 336 657z"/>
<path style="fill:#408a5f; stroke:none;" d="M746 461L747 462L746 461z"/>
<path style="fill:#fefffe; stroke:none;" d="M815 735C824.609 726.218 830.942 713.515 840.039 704C858.599 684.589 880.43 669.05 904 656.309C922.561 646.275 943.644 639.28 964 633.975C997.486 625.249 1033.33 620.521 1068 622.039C1123.04 624.45 1178.32 635.661 1232 647.665C1244.72 650.509 1257.27 654.339 1270 657C1268.37 651.898 1265.1 647.609 1262.42 643C1256.97 633.612 1251.39 624.309 1245.8 615C1228.63 586.378 1211.18 557.869 1194.42 529C1188.01 517.939 1181.22 507.09 1174.85 496C1172.15 491.292 1169.42 484.04 1164.79 480.938C1158.46 476.696 1147.36 476.355 1140 474.789C1120.46 470.634 1100.88 466.97 1081 464.834C1010.24 457.231 934.859 459.209 872 497C851.48 509.337 831.134 525.842 817.789 546C814.182 551.449 815 557.754 815 564L815 599L815 735z"/>
<path style="fill:#408a5f; stroke:none;" d="M747 462L748 463L747 462M858 462L859 463L858 462M750 464L751 465L750 464M855 464L856 465L855 464M752 465L753 466L752 465M852 466L853 467L852 466M755 467L756 468L755 467M849 468L850 469L849 468M758 469L759 470L758 469M846 470L847 471L846 470M761 471L762 472L761 471M845 471L846 472L845 471M762 472L763 473L762 472M843 472L844 473L843 472M842 473L843 474L842 473M765 474L766 475L765 474M766 475L767 476L766 475M838 476L839 477L838 476M769 477L770 478L769 477M837 477L838 478L837 477M833 480L834 481L833 480M774 481L775 482L774 481M832 481L833 482L832 481M775 482L776 483L775 482M831 482L832 483L831 482M776 483L777 484L776 483M827 485L828 486L827 485M780 486L781 487L780 486M826 486L827 487L826 486M781 487L782 488L781 487M825 487L826 488L825 487M782 488L783 489L782 488M824 488L825 489L824 488M783 489L784 490L783 489M823 489L824 490L823 489M784 490L785 491L784 490M822 490L823 491L822 490M785 491L786 492L785 491M821 491L822 492L821 491M820 492L821 493L820 492M819 493L820 494L819 493M789 494L790 495L789 494M790 495L791 496L790 495M791 496L792 497L791 496z"/>
<path style="fill:#fefffe; stroke:none;" d="M201 782L549 782L664 782C682.77 782 702.307 780.423 720.999 782.059C727.71 782.646 729.487 788.86 732.312 794C735.622 800.023 739.878 805.247 745 809.826C760.792 823.944 782.128 829.998 803 829.998C824.212 829.998 845.784 823.763 861.996 809.7C866.422 805.86 870.368 801.134 873.204 796C876.365 790.28 878.437 782.718 886 782.059C904.695 780.428 924.228 782 943 782L1058 782L1405 782C1401.23 773.931 1395.82 766.606 1391.2 759C1381.01 742.214 1370.57 725.583 1360.05 709C1334.58 668.838 1309.57 628.371 1284.42 588C1275.89 574.302 1267.29 560.652 1258.68 547C1255.55 542.027 1251.98 533.061 1246.79 530.028C1244.26 528.55 1240.81 529.001 1238 529L1221 529C1225.64 541.687 1235.15 553.36 1241.99 565C1255.72 588.38 1269.23 612.054 1283.68 635C1289.28 643.892 1294.38 653.087 1299.95 662C1302.5 666.081 1306.41 670.881 1305.23 676C1301.94 690.325 1284.2 683.306 1275 680.71C1244.19 672.013 1212.27 666.431 1181 659.576C1097.06 641.17 1007.54 635.558 927 670.15C905.141 679.539 883.114 692.321 866 709.015C860.765 714.121 854.118 719.314 851 726C863.077 718.479 874.423 710.111 887 703.309C901.976 695.208 917.866 688.888 934 683.515C958.366 675.401 984.494 671.698 1010 669.911C1064.68 666.078 1120.32 672.277 1174 683.661C1203.45 689.907 1233.15 695.697 1263 699.718C1275.96 701.464 1289.07 701.76 1302 703.286C1309.41 704.159 1319.37 702.208 1325.98 706.089C1331.9 709.559 1334.15 717.539 1328.77 722.606C1321.4 729.547 1306.03 725.477 1297 725.039C1265.67 723.515 1233.65 718.297 1203 711.662C1180.91 706.88 1158.34 703.041 1136 699.576C1069.25 689.224 999.003 683.101 934 706.586C913.879 713.856 894.651 722.657 877 734.885C870.993 739.047 862.749 743.62 859 750C872.505 746.11 885.682 738.877 899 734.054C917.452 727.372 937.602 723.036 957 720.286C1003.77 713.655 1051.06 713.627 1098 718.17C1141.16 722.347 1183.95 730.929 1227 736.285C1244.28 738.434 1261.63 740.721 1279 741.911C1300.62 743.391 1322.33 742.447 1344 743.015C1353.54 743.264 1365.2 752.121 1356.58 761.786C1351.51 767.473 1342.83 766 1336 766C1318.74 766 1301.17 765.805 1284 764.17C1253.63 761.277 1223.29 758.798 1193 754.718C1169.58 751.563 1146.38 746.813 1123 743.428C1106.11 740.982 1088.97 739.786 1072 738.17C1036.79 734.817 1000.91 736.765 966 741.714C942.177 745.092 918.428 749.478 896 758.449C884.548 763.03 869.691 767.82 860.144 775.789C855.003 780.08 853.848 788.025 848.957 792.96C835.394 806.643 816.073 808.086 798 807.999C782.789 807.926 766.47 802.621 756.185 790.996C752.486 786.815 751.619 780.45 747.697 776.786C739.179 768.827 724.722 763.978 714 759.811C669.978 742.703 621.933 737 575 737C556.962 737 538.917 737.136 521 739.286C482.191 743.942 443.718 750.619 405 755.711C377.711 759.299 350.36 761.556 323 764.17C305.759 765.817 288.341 766 271 766C264.376 766 255.5 767.571 250.228 762.606C241.87 754.733 250.693 743.611 260 743.044C273.953 742.193 288.033 743.572 302 742.961C328.018 741.821 354.118 739.252 380 736.155C426.099 730.639 471.777 721.569 518 717.17C563.727 712.818 610.601 714.266 656 721.275C678.233 724.707 700.9 731.316 722 739.053C730.778 742.272 739.057 747.424 748 750C742.493 742.821 733.489 737.638 726 732.667C705.434 719.018 682.784 709.29 659 702.849C626.208 693.968 590.992 689.182 557 690.015C505.982 691.265 456.048 702.381 406 711.424C374.598 717.098 341.97 724.239 310 725C301.245 725.208 286.566 729.466 279.055 723.566C269.378 715.965 276.959 705.302 287 704.174C307.923 701.824 329.029 701.543 350 698.718C377.564 695.004 404.644 688.443 432 683.754C472.148 676.872 512.266 669.823 553 668.039C566.765 667.437 580.327 668.909 594 669.911C621.494 671.927 648.623 676.074 675 684.347C693.751 690.229 711.975 698.683 729 708.427C737.768 713.446 745.876 720.935 755 725C737.209 699.744 707.75 682.409 680 670.14C602.129 635.71 515.425 642.016 434 658.2C400.881 664.782 368.115 673.399 335 679.74C325.062 681.643 306.932 691.134 301.747 676.999C300.012 672.27 303.286 667.867 305.6 664C310.974 655.018 316.153 645.882 321.684 637C333.992 617.238 345.17 596.789 357.424 577C367.033 561.484 378.77 545.778 386 529L368 529C365.276 529.001 361.805 528.514 359.379 530.028C354.317 533.187 350.805 542.044 347.681 547C338.857 561.001 329.913 574.936 321.192 589C295.925 629.75 270.628 670.511 244.947 711C235.483 725.92 226.338 741.032 216.95 756C211.601 764.529 205.306 772.897 201 782z"/>
</svg>
